<svg width="54" height="54" viewBox="0 0 54 54" fill="none" xmlns="http://www.w3.org/2000/svg">
<path d="M39.5325 8.82013C37.4294 11.5561 35.5985 14.6422 33.4573 16.9254C37.8944 13.5683 43.3274 10.4853 46.6072 6.87761L48.0116 8.15463C44.644 11.8588 39.6142 14.7929 35.4785 17.7945C38.1047 17.2756 41.1018 16.1276 43.7801 14.692C46.7352 13.1081 49.3108 11.1531 50.5955 9.48786C52.519 6.9642 52.1851 4.25271 49.4791 2.89247C45.537 1.42298 41.1944 6.68344 39.5325 8.82013ZM34.63 5.60218C32.9605 7.53922 31.7509 9.90952 31.3239 12.0129C30.9976 13.6196 31.8194 14.9987 32.4094 16.0244C33.6609 11.9161 39.397 8.11318 38.3927 4.83415C37.4326 3.45652 35.2708 4.88109 34.63 5.60218ZM21.9196 8.32296C19.1496 8.30007 16.294 9.10385 13.3697 11.4307C13.8091 12.8265 14.8183 14.0084 16.325 15.004C14.2014 15.1619 12.3068 14.7473 10.4341 14.2779C10.1712 14.5808 9.91453 14.889 9.6642 15.2023C6.58293 19.0567 6.96799 24.1581 7.83695 29.8218C7.96193 30.636 8.09651 31.4613 8.2313 32.2905C10.1256 35.0159 12.9054 36.995 14.6803 38.9565C12.6 38.4889 10.5451 37.9541 8.84903 36.4621C9.20288 39.3601 9.33524 42.2722 8.79946 45.0788C13.5738 43.0893 19.9977 42.7578 26.2037 41.8004C30.6376 41.1164 34.9017 40.1467 38.3514 38.2208C33.734 37.7582 30.36 34.8322 28.1678 31.9852C32.4833 33.5916 36.5223 35.9719 41.3763 36.0703C42.171 35.3486 42.8875 34.5373 43.5114 33.6213C46.6893 28.9571 46.341 24.9544 44.4477 21.4651C43.7336 20.1489 42.778 18.9193 41.6893 17.8022C40.3129 18.3907 38.9117 18.8887 37.5403 19.2622C38.4051 19.4945 39.2884 19.6516 40.1802 19.7318L40.0091 21.6225C35.1607 20.7816 27.4957 18.5042 26.3572 11.422L28.2024 11.8677C28.4996 12.5051 28.8732 13.1898 29.2539 13.7049C29.2662 12.48 29.4759 11.3683 29.815 10.2906C27.8336 9.40865 25.7392 8.69009 23.5925 8.43254C23.0373 8.36498 22.4787 8.32836 21.9195 8.32285L21.9196 8.32296ZM24.6813 22.0019C28.1051 24.4482 36.5564 27.8862 40.8728 29.0963C34.4237 30.1944 24.9605 28.3042 24.6813 22.0019ZM7.23937 41.1517C5.97553 42.0316 5.19876 42.7796 3.04044 43.2065L3.40874 45.0687C5.09181 44.7357 6.20619 44.1512 7.10405 43.5614C7.19517 42.7739 7.23715 41.9697 7.23937 41.1517ZM12.1687 45.9818C11.4192 46.1795 10.7067 46.398 10.0401 46.6443C9.70174 47.8785 9.27006 49.0027 8.29036 50.0962L9.70428 51.3629C11.2984 49.5835 11.7525 47.6705 12.1687 45.9818ZM6.62058 46.0527C4.96261 46.8905 3.44871 48.1373 2.18414 49.8972L3.72557 51.005C4.3394 50.1506 5.0028 49.4541 5.71302 48.8816C5.99863 47.9504 6.3644 46.9543 6.62058 46.0527Z" fill="#8B0000"/>
</svg>
