<svg width="180" height="40" viewBox="0 0 180 40" fill="none" xmlns="http://www.w3.org/2000/svg">
<path d="M29.2834 6.53344C27.7255 8.56008 26.3693 10.8461 24.7832 12.5373C28.07 10.0506 32.0944 7.76688 34.5239 5.09453L35.5642 6.04047C33.0696 8.7843 29.3439 10.9577 26.2804 13.1811C28.2257 12.7967 30.4458 11.9464 32.4297 10.883C34.6187 9.70969 36.5266 8.26157 37.4782 7.02805C38.903 5.15868 38.6557 3.15016 36.6512 2.14258C33.7311 1.05407 30.5144 4.95071 29.2834 6.53344ZM25.6519 4.14977C24.4152 5.58461 23.5192 7.34039 23.2029 8.89844C22.9612 10.0886 23.57 11.1102 24.007 11.8699C24.934 8.82672 29.183 6.00977 28.4391 3.58086C27.7279 2.56039 26.1266 3.61563 25.6519 4.14977ZM16.2367 6.16516C14.185 6.14821 12.0696 6.7436 9.90354 8.46719C10.229 9.5011 10.9766 10.3766 12.0926 11.1141C10.5196 11.231 9.1162 10.9239 7.72901 10.5763C7.53428 10.8006 7.34414 11.0289 7.1587 11.2609C4.87628 14.1161 5.16151 17.8949 5.80519 22.0902C5.89776 22.6934 5.99745 23.3047 6.09729 23.9189C7.5005 25.9377 9.55956 27.4037 10.8743 28.8566C9.33339 28.5103 7.8112 28.1141 6.55487 27.009C6.81698 29.1556 6.91503 31.3127 6.51815 33.3917C10.0547 31.918 14.8132 31.6724 19.4102 30.9633C22.6946 30.4566 25.8532 29.7383 28.4085 28.3117C24.9882 27.9691 22.4889 25.8016 20.8651 23.6927C24.0617 24.8827 27.0536 26.6459 30.6492 26.7188C31.2378 26.1841 31.7685 25.5832 32.2307 24.9047C34.5847 21.4497 34.3267 18.4848 32.9242 15.9001C32.3953 14.9251 31.6875 14.0143 30.881 13.1868C29.8614 13.6227 28.8235 13.9916 27.8077 14.2683C28.4483 14.4404 29.1025 14.5568 29.7632 14.6162L29.6364 16.0166C26.045 15.3938 20.3672 13.7068 19.5239 8.46078L20.8907 8.79086C21.1109 9.26305 21.3876 9.77024 21.6696 10.1518C21.6787 9.24446 21.834 8.42094 22.0852 7.62266C20.6175 6.96938 19.0661 6.43711 17.476 6.24633C17.0647 6.19629 16.651 6.16916 16.2367 6.16508L16.2367 6.16516ZM18.2825 16.2977C20.8186 18.1098 27.0789 20.6565 30.2762 21.5528C25.4991 22.3663 18.4893 20.9661 18.2825 16.2977ZM5.36253 30.4827C4.42636 31.1345 3.85097 31.6886 2.25222 32.0048L2.52503 33.3842C3.77175 33.1376 4.59722 32.7046 5.2623 32.2677C5.3298 31.6844 5.36089 31.0887 5.36253 30.4827ZM9.01386 34.0606C8.4587 34.207 7.93089 34.3689 7.43714 34.5513C7.18651 35.4656 6.86675 36.2983 6.14105 37.1083L7.18839 38.0466C8.36925 36.7285 8.70558 35.3115 9.01386 34.0606ZM4.90417 34.1131C3.67604 34.7337 2.55464 35.6573 1.61792 36.9609L2.75972 37.7815C3.2144 37.1486 3.70581 36.6327 4.2319 36.2086C4.44347 35.5188 4.7144 34.7809 4.90417 34.1131Z" fill="#F5F5F5"/>
<path d="M45.104 21V18.216H47.312V6.984H45.104V4.2H53.744C54.768 4.2 55.656 4.376 56.408 4.728C57.176 5.064 57.768 5.552 58.184 6.192C58.616 6.816 58.832 7.568 58.832 8.448V8.688C58.832 9.456 58.688 10.088 58.4 10.584C58.112 11.064 57.768 11.44 57.368 11.712C56.984 11.968 56.616 12.152 56.264 12.264V12.696C56.616 12.792 57 12.976 57.416 13.248C57.832 13.504 58.184 13.88 58.472 14.376C58.776 14.872 58.928 15.52 58.928 16.32V16.56C58.928 17.488 58.712 18.288 58.28 18.96C57.848 19.616 57.248 20.12 56.48 20.472C55.728 20.824 54.848 21 53.84 21H45.104ZM50.48 18.12H53.456C54.144 18.12 54.696 17.952 55.112 17.616C55.544 17.28 55.76 16.8 55.76 16.176V15.936C55.76 15.312 55.552 14.832 55.136 14.496C54.72 14.16 54.16 13.992 53.456 13.992H50.48V18.12ZM50.48 11.112H53.408C54.064 11.112 54.6 10.944 55.016 10.608C55.448 10.272 55.664 9.808 55.664 9.216V8.976C55.664 8.368 55.456 7.904 55.04 7.584C54.624 7.248 54.08 7.08 53.408 7.08H50.48V11.112ZM72.8495 21.336C70.7375 21.336 69.0575 20.76 67.8095 19.608C66.5615 18.44 65.9375 16.776 65.9375 14.616V10.584C65.9375 8.424 66.5615 6.768 67.8095 5.616C69.0575 4.448 70.7375 3.864 72.8495 3.864C74.9615 3.864 76.6415 4.448 77.8895 5.616C79.1375 6.768 79.7615 8.424 79.7615 10.584V14.616C79.7615 16.776 79.1375 18.44 77.8895 19.608C76.6415 20.76 74.9615 21.336 72.8495 21.336ZM72.8495 18.504C74.0335 18.504 74.9535 18.16 75.6095 17.472C76.2655 16.784 76.5935 15.864 76.5935 14.712V10.488C76.5935 9.336 76.2655 8.416 75.6095 7.728C74.9535 7.04 74.0335 6.696 72.8495 6.696C71.6815 6.696 70.7615 7.04 70.0895 7.728C69.4335 8.416 69.1055 9.336 69.1055 10.488V14.712C69.1055 15.864 69.4335 16.784 70.0895 17.472C70.7615 18.16 71.6815 18.504 72.8495 18.504ZM87.3402 21V4.2H94.6362C95.6922 4.2 96.6122 4.384 97.3962 4.752C98.1802 5.12 98.7882 5.64 99.2202 6.312C99.6522 6.984 99.8682 7.776 99.8682 8.688V8.976C99.8682 9.984 99.6282 10.8 99.1482 11.424C98.6682 12.048 98.0762 12.504 97.3722 12.792V13.224C98.0122 13.256 98.5082 13.48 98.8602 13.896C99.2122 14.296 99.3882 14.832 99.3882 15.504V21H96.2202V15.96C96.2202 15.576 96.1162 15.264 95.9082 15.024C95.7162 14.784 95.3882 14.664 94.9242 14.664H90.5082V21H87.3402ZM90.5082 11.784H94.3002C95.0522 11.784 95.6362 11.584 96.0522 11.184C96.4842 10.768 96.7002 10.224 96.7002 9.552V9.312C96.7002 8.64 96.4922 8.104 96.0762 7.704C95.6602 7.288 95.0682 7.08 94.3002 7.08H90.5082V11.784ZM113.136 21.336C111.84 21.336 110.696 21.104 109.704 20.64C108.712 20.176 107.936 19.512 107.376 18.648C106.816 17.784 106.536 16.744 106.536 15.528V14.856H109.656V15.528C109.656 16.536 109.968 17.296 110.592 17.808C111.216 18.304 112.064 18.552 113.136 18.552C114.224 18.552 115.032 18.336 115.56 17.904C116.104 17.472 116.376 16.92 116.376 16.248C116.376 15.784 116.24 15.408 115.968 15.12C115.712 14.832 115.328 14.6 114.816 14.424C114.32 14.232 113.712 14.056 112.992 13.896L112.44 13.776C111.288 13.52 110.296 13.2 109.464 12.816C108.648 12.416 108.016 11.896 107.568 11.256C107.136 10.616 106.92 9.784 106.92 8.76C106.92 7.736 107.16 6.864 107.64 6.144C108.136 5.408 108.824 4.848 109.704 4.464C110.6 4.064 111.648 3.864 112.848 3.864C114.048 3.864 115.112 4.072 116.04 4.488C116.984 4.888 117.72 5.496 118.248 6.312C118.792 7.112 119.064 8.12 119.064 9.336V10.056H115.944V9.336C115.944 8.696 115.816 8.184 115.56 7.8C115.32 7.4 114.968 7.112 114.504 6.936C114.04 6.744 113.488 6.648 112.848 6.648C111.888 6.648 111.176 6.832 110.712 7.2C110.264 7.552 110.04 8.04 110.04 8.664C110.04 9.08 110.144 9.432 110.352 9.72C110.576 10.008 110.904 10.248 111.336 10.44C111.768 10.632 112.32 10.8 112.992 10.944L113.544 11.064C114.744 11.32 115.784 11.648 116.664 12.048C117.56 12.448 118.256 12.976 118.752 13.632C119.248 14.288 119.496 15.128 119.496 16.152C119.496 17.176 119.232 18.08 118.704 18.864C118.192 19.632 117.456 20.24 116.496 20.688C115.552 21.12 114.432 21.336 113.136 21.336ZM133.043 21.336C130.963 21.336 129.315 20.76 128.099 19.608C126.883 18.44 126.275 16.776 126.275 14.616V10.584C126.275 8.424 126.883 6.768 128.099 5.616C129.315 4.448 130.963 3.864 133.043 3.864C135.107 3.864 136.699 4.432 137.819 5.568C138.955 6.688 139.523 8.232 139.523 10.2V10.344H136.403V10.104C136.403 9.112 136.123 8.296 135.563 7.656C135.019 7.016 134.179 6.696 133.043 6.696C131.923 6.696 131.043 7.04 130.403 7.728C129.763 8.416 129.443 9.352 129.443 10.536V14.664C129.443 15.832 129.763 16.768 130.403 17.472C131.043 18.16 131.923 18.504 133.043 18.504C134.179 18.504 135.019 18.184 135.563 17.544C136.123 16.888 136.403 16.072 136.403 15.096V14.664H139.523V15C139.523 16.968 138.955 18.52 137.819 19.656C136.699 20.776 135.107 21.336 133.043 21.336ZM146.904 21V4.2H150.072V11.136H156.312V4.2H159.48V21H156.312V14.016H150.072V21H146.904ZM171.342 21V7.08H166.446V4.2H179.406V7.08H174.51V21H171.342Z" fill="#8B0000"/>
<path d="M87.248 35.168C86.64 35.168 86.164 35.052 85.82 34.82C85.484 34.588 85.24 34.324 85.088 34.028H84.92V35H83.996V26.6H84.944V30.056H85.112C85.208 29.872 85.344 29.7 85.52 29.54C85.696 29.372 85.924 29.236 86.204 29.132C86.492 29.02 86.84 28.964 87.248 28.964C87.76 28.964 88.224 29.088 88.64 29.336C89.064 29.576 89.4 29.924 89.648 30.38C89.896 30.828 90.02 31.364 90.02 31.988V32.144C90.02 32.768 89.892 33.308 89.636 33.764C89.388 34.22 89.052 34.568 88.628 34.808C88.212 35.048 87.752 35.168 87.248 35.168ZM86.996 34.328C87.604 34.328 88.096 34.136 88.472 33.752C88.856 33.36 89.048 32.816 89.048 32.12V32.012C89.048 31.316 88.856 30.776 88.472 30.392C88.096 30 87.604 29.804 86.996 29.804C86.396 29.804 85.9 30 85.508 30.392C85.124 30.776 84.932 31.316 84.932 32.012V32.12C84.932 32.816 85.124 33.36 85.508 33.752C85.9 34.136 86.396 34.328 86.996 34.328ZM92.4267 37.4V36.56H95.7867C96.0187 36.56 96.1347 36.44 96.1347 36.2V34.064H95.9667C95.8867 34.232 95.7627 34.4 95.5947 34.568C95.4347 34.728 95.2227 34.86 94.9587 34.964C94.6947 35.06 94.3627 35.108 93.9627 35.108C93.5387 35.108 93.1467 35.016 92.7867 34.832C92.4347 34.648 92.1547 34.376 91.9467 34.016C91.7467 33.656 91.6467 33.216 91.6467 32.696V29.132H92.5947V32.624C92.5947 33.2 92.7387 33.62 93.0267 33.884C93.3227 34.148 93.7187 34.28 94.2147 34.28C94.7747 34.28 95.2347 34.096 95.5947 33.728C95.9547 33.36 96.1347 32.812 96.1347 32.084V29.132H97.0827V36.368C97.0827 36.688 96.9907 36.94 96.8067 37.124C96.6307 37.308 96.3707 37.4 96.0267 37.4H92.4267ZM105.148 35.168C104.148 35.168 103.352 34.88 102.76 34.304C102.168 33.72 101.872 32.872 101.872 31.76V29.84C101.872 28.728 102.168 27.884 102.76 27.308C103.352 26.724 104.148 26.432 105.148 26.432C106.14 26.432 106.9 26.708 107.428 27.26C107.964 27.812 108.232 28.568 108.232 29.528V29.588H107.236V29.492C107.236 28.86 107.064 28.344 106.72 27.944C106.384 27.536 105.86 27.332 105.148 27.332C104.436 27.332 103.88 27.552 103.48 27.992C103.08 28.424 102.88 29.032 102.88 29.816V31.784C102.88 32.568 103.08 33.18 103.48 33.62C103.88 34.052 104.436 34.268 105.148 34.268C105.86 34.268 106.384 34.068 106.72 33.668C107.064 33.26 107.236 32.74 107.236 32.108V31.916H108.232V32.072C108.232 33.032 107.964 33.788 107.428 34.34C106.9 34.892 106.14 35.168 105.148 35.168ZM112.092 35.108C111.668 35.108 111.276 35.016 110.916 34.832C110.564 34.648 110.284 34.376 110.076 34.016C109.876 33.648 109.776 33.204 109.776 32.684V29.132H110.724V32.612C110.724 33.196 110.868 33.62 111.156 33.884C111.452 34.148 111.848 34.28 112.344 34.28C112.904 34.28 113.364 34.096 113.724 33.728C114.084 33.36 114.264 32.812 114.264 32.084V29.132H115.212V35H114.288V34.004H114.12C113.992 34.284 113.772 34.54 113.46 34.772C113.148 34.996 112.692 35.108 112.092 35.108ZM117.195 35V26.6H118.143V35H117.195ZM122.297 35C121.961 35 121.701 34.908 121.517 34.724C121.341 34.54 121.253 34.288 121.253 33.968V29.96H119.489V29.132H121.253V27.044H122.201V29.132H124.121V29.96H122.201V33.824C122.201 34.064 122.317 34.184 122.549 34.184H123.857V35H122.297ZM125.224 29.48V28.832H126.244L127.072 28.94L127.132 28.808L126.46 28.304L125.74 27.572L126.196 27.128L126.916 27.848L127.432 28.508L127.564 28.448L127.456 27.62V26.6H128.104V27.62L127.996 28.448L128.128 28.508L128.644 27.848L129.364 27.128L129.82 27.572L129.1 28.304L128.428 28.808L128.488 28.94L129.316 28.832H130.336V29.48H129.316L128.488 29.384L128.428 29.504L129.1 30.02L129.82 30.74L129.364 31.196L128.644 30.476L128.128 29.804L127.996 29.864L128.104 30.692V31.712H127.456V30.692L127.564 29.864L127.432 29.804L126.916 30.476L126.196 31.196L125.74 30.74L126.46 30.02L127.132 29.504L127.072 29.384L126.244 29.48H125.224ZM137.685 35.168C137.093 35.168 136.569 35.044 136.113 34.796C135.665 34.548 135.313 34.2 135.057 33.752C134.809 33.296 134.685 32.76 134.685 32.144V31.988C134.685 31.38 134.809 30.848 135.057 30.392C135.313 29.936 135.665 29.584 136.113 29.336C136.569 29.088 137.093 28.964 137.685 28.964C138.277 28.964 138.797 29.088 139.245 29.336C139.701 29.584 140.053 29.936 140.301 30.392C140.557 30.848 140.685 31.38 140.685 31.988V32.144C140.685 32.76 140.557 33.296 140.301 33.752C140.053 34.2 139.701 34.548 139.245 34.796C138.797 35.044 138.277 35.168 137.685 35.168ZM137.685 34.316C138.309 34.316 138.805 34.12 139.173 33.728C139.549 33.328 139.737 32.792 139.737 32.12V32.012C139.737 31.34 139.549 30.808 139.173 30.416C138.805 30.016 138.309 29.816 137.685 29.816C137.069 29.816 136.573 30.016 136.197 30.416C135.821 30.808 135.633 31.34 135.633 32.012V32.12C135.633 32.792 135.821 33.328 136.197 33.728C136.573 34.12 137.069 34.316 137.685 34.316ZM143.296 35V29.96H141.496V29.132H143.296V27.632C143.296 27.312 143.384 27.06 143.56 26.876C143.744 26.692 144.004 26.6 144.34 26.6H145.816V27.416H144.604C144.364 27.416 144.244 27.536 144.244 27.776V29.132H146.092V29.96H144.244V35H143.296ZM153.283 35.168C152.675 35.168 152.131 35.06 151.651 34.844C151.171 34.628 150.791 34.304 150.511 33.872C150.239 33.432 150.103 32.884 150.103 32.228V31.976H151.099V32.228C151.099 32.924 151.303 33.444 151.711 33.788C152.119 34.124 152.643 34.292 153.283 34.292C153.939 34.292 154.439 34.144 154.783 33.848C155.127 33.552 155.299 33.18 155.299 32.732C155.299 32.42 155.219 32.172 155.059 31.988C154.907 31.804 154.691 31.656 154.411 31.544C154.131 31.424 153.803 31.32 153.427 31.232L152.803 31.076C152.315 30.948 151.883 30.792 151.507 30.608C151.131 30.424 150.835 30.184 150.619 29.888C150.411 29.584 150.307 29.196 150.307 28.724C150.307 28.252 150.423 27.844 150.655 27.5C150.895 27.156 151.227 26.892 151.651 26.708C152.083 26.524 152.579 26.432 153.139 26.432C153.707 26.432 154.215 26.532 154.663 26.732C155.119 26.924 155.475 27.212 155.731 27.596C155.995 27.972 156.127 28.448 156.127 29.024V29.528H155.131V29.024C155.131 28.616 155.043 28.288 154.867 28.04C154.699 27.792 154.463 27.608 154.159 27.488C153.863 27.368 153.523 27.308 153.139 27.308C152.587 27.308 152.143 27.432 151.807 27.68C151.471 27.92 151.303 28.264 151.303 28.712C151.303 29.008 151.375 29.248 151.519 29.432C151.663 29.616 151.867 29.768 152.131 29.888C152.395 30 152.711 30.1 153.079 30.188L153.703 30.344C154.191 30.448 154.627 30.592 155.011 30.776C155.403 30.952 155.715 31.196 155.947 31.508C156.179 31.812 156.295 32.212 156.295 32.708C156.295 33.204 156.171 33.636 155.923 34.004C155.675 34.372 155.323 34.66 154.867 34.868C154.419 35.068 153.891 35.168 153.283 35.168ZM160.595 35.168C160.003 35.168 159.479 35.044 159.023 34.796C158.575 34.548 158.223 34.2 157.967 33.752C157.719 33.296 157.595 32.76 157.595 32.144V31.988C157.595 31.38 157.719 30.848 157.967 30.392C158.223 29.936 158.575 29.584 159.023 29.336C159.479 29.088 160.003 28.964 160.595 28.964C161.187 28.964 161.707 29.088 162.155 29.336C162.611 29.584 162.963 29.936 163.211 30.392C163.467 30.848 163.595 31.38 163.595 31.988V32.144C163.595 32.76 163.467 33.296 163.211 33.752C162.963 34.2 162.611 34.548 162.155 34.796C161.707 35.044 161.187 35.168 160.595 35.168ZM160.595 34.316C161.219 34.316 161.715 34.12 162.083 33.728C162.459 33.328 162.647 32.792 162.647 32.12V32.012C162.647 31.34 162.459 30.808 162.083 30.416C161.715 30.016 161.219 29.816 160.595 29.816C159.979 29.816 159.483 30.016 159.107 30.416C158.731 30.808 158.543 31.34 158.543 32.012V32.12C158.543 32.792 158.731 33.328 159.107 33.728C159.483 34.12 159.979 34.316 160.595 34.316ZM167.545 35.108C167.121 35.108 166.729 35.016 166.369 34.832C166.017 34.648 165.737 34.376 165.529 34.016C165.329 33.648 165.229 33.204 165.229 32.684V29.132H166.177V32.612C166.177 33.196 166.321 33.62 166.609 33.884C166.905 34.148 167.301 34.28 167.797 34.28C168.357 34.28 168.817 34.096 169.177 33.728C169.537 33.36 169.717 32.812 169.717 32.084V29.132H170.665V35H169.741V34.004H169.573C169.445 34.284 169.225 34.54 168.913 34.772C168.601 34.996 168.145 35.108 167.545 35.108ZM172.648 37.4V29.132H173.572V30.104H173.74C173.892 29.808 174.136 29.544 174.472 29.312C174.816 29.08 175.292 28.964 175.9 28.964C176.404 28.964 176.864 29.088 177.28 29.336C177.704 29.576 178.04 29.92 178.288 30.368C178.544 30.816 178.672 31.356 178.672 31.988V32.144C178.672 32.768 178.548 33.308 178.3 33.764C178.052 34.22 177.716 34.568 177.292 34.808C176.876 35.048 176.412 35.168 175.9 35.168C175.492 35.168 175.144 35.112 174.856 35C174.576 34.896 174.348 34.76 174.172 34.592C173.996 34.424 173.86 34.252 173.764 34.076H173.596V37.4H172.648ZM175.648 34.328C176.256 34.328 176.748 34.136 177.124 33.752C177.508 33.36 177.7 32.816 177.7 32.12V32.012C177.7 31.316 177.508 30.776 177.124 30.392C176.748 30 176.256 29.804 175.648 29.804C175.048 29.804 174.552 30 174.16 30.392C173.776 30.776 173.584 31.316 173.584 32.012V32.12C173.584 32.816 173.776 33.36 174.16 33.752C174.552 34.136 175.048 34.328 175.648 34.328Z" fill="#F5F5F5"/>
</svg>
