<svg width="186" height="40" viewBox="0 0 186 40" fill="none" xmlns="http://www.w3.org/2000/svg">
<path d="M29.2834 6.53344C27.7255 8.56008 26.3693 10.8461 24.7832 12.5373C28.0699 10.0506 32.0944 7.76688 34.5238 5.09453L35.5641 6.04047C33.0696 8.7843 29.3438 10.9577 26.2804 13.1811C28.2257 12.7967 30.4458 11.9464 32.4297 10.883C34.6187 9.70969 36.5266 8.26157 37.4781 7.02805C38.903 5.15868 38.6556 3.15016 36.6512 2.14258C33.7311 1.05407 30.5144 4.95071 29.2834 6.53344ZM25.6519 4.14977C24.4152 5.58461 23.5192 7.34039 23.2029 8.89844C22.9612 10.0886 23.5699 11.1102 24.007 11.8699C24.934 8.82672 29.183 6.00977 28.4391 3.58086C27.7279 2.56039 26.1266 3.61563 25.6519 4.14977ZM16.2367 6.16516C14.1849 6.14821 12.0696 6.7436 9.90351 8.46719C10.229 9.5011 10.9766 10.3766 12.0926 11.1141C10.5195 11.231 9.11617 10.9239 7.72898 10.5763C7.53425 10.8006 7.34411 11.0289 7.15867 11.2609C4.87625 14.1161 5.16148 17.8949 5.80516 22.0902C5.89773 22.6934 5.99742 23.3047 6.09726 23.9189C7.50047 25.9377 9.55953 27.4037 10.8743 28.8566C9.33336 28.5103 7.81117 28.1141 6.55484 27.009C6.81695 29.1556 6.915 31.3127 6.51812 33.3917C10.0547 31.918 14.8131 31.6724 19.4102 30.9633C22.6945 30.4566 25.8531 29.7383 28.4084 28.3117C24.9881 27.9691 22.4889 25.8016 20.8651 23.6927C24.0617 24.8827 27.0536 26.6459 30.6491 26.7188C31.2378 26.1841 31.7685 25.5832 32.2307 24.9047C34.5847 21.4497 34.3266 18.4848 32.9242 15.9001C32.3952 14.9251 31.6874 14.0143 30.8809 13.1868C29.8614 13.6227 28.8235 13.9916 27.8077 14.2683C28.4482 14.4404 29.1025 14.5568 29.7631 14.6162L29.6364 16.0166C26.045 15.3938 20.3672 13.7068 19.5238 8.46078L20.8907 8.79086C21.1109 9.26305 21.3876 9.77024 21.6695 10.1518C21.6787 9.24446 21.834 8.42094 22.0852 7.62266C20.6175 6.96938 19.0661 6.43711 17.4759 6.24633C17.0647 6.19629 16.6509 6.16916 16.2366 6.16508L16.2367 6.16516ZM18.2824 16.2977C20.8186 18.1098 27.0788 20.6565 30.2762 21.5528C25.4991 22.3663 18.4893 20.9661 18.2824 16.2977ZM5.3625 30.4827C4.42633 31.1345 3.85094 31.6886 2.25219 32.0048L2.525 33.3842C3.77172 33.1376 4.59719 32.7046 5.26226 32.2677C5.32976 31.6844 5.36086 31.0887 5.3625 30.4827ZM9.01383 34.0606C8.45867 34.207 7.93086 34.3689 7.43711 34.5513C7.18648 35.4656 6.86672 36.2983 6.14101 37.1083L7.18836 38.0466C8.36922 36.7285 8.70555 35.3115 9.01383 34.0606ZM4.90414 34.1131C3.67601 34.7337 2.55461 35.6573 1.61789 36.9609L2.75969 37.7815C3.21437 37.1486 3.70578 36.6327 4.23187 36.2086C4.44344 35.5188 4.71437 34.7809 4.90414 34.1131Z" fill="#F5F5F5"/>
<path d="M51.104 21V18.216H53.312V6.984H51.104V4.2H59.744C60.768 4.2 61.656 4.376 62.408 4.728C63.176 5.064 63.768 5.552 64.184 6.192C64.616 6.816 64.832 7.568 64.832 8.448V8.688C64.832 9.456 64.688 10.088 64.4 10.584C64.112 11.064 63.768 11.44 63.368 11.712C62.984 11.968 62.616 12.152 62.264 12.264V12.696C62.616 12.792 63 12.976 63.416 13.248C63.832 13.504 64.184 13.88 64.472 14.376C64.776 14.872 64.928 15.52 64.928 16.32V16.56C64.928 17.488 64.712 18.288 64.28 18.96C63.848 19.616 63.248 20.12 62.48 20.472C61.728 20.824 60.848 21 59.84 21H51.104ZM56.48 18.12H59.456C60.144 18.12 60.696 17.952 61.112 17.616C61.544 17.28 61.76 16.8 61.76 16.176V15.936C61.76 15.312 61.552 14.832 61.136 14.496C60.72 14.16 60.16 13.992 59.456 13.992H56.48V18.12ZM56.48 11.112H59.408C60.064 11.112 60.6 10.944 61.016 10.608C61.448 10.272 61.664 9.808 61.664 9.216V8.976C61.664 8.368 61.456 7.904 61.04 7.584C60.624 7.248 60.08 7.08 59.408 7.08H56.48V11.112ZM78.8495 21.336C76.7375 21.336 75.0575 20.76 73.8095 19.608C72.5615 18.44 71.9375 16.776 71.9375 14.616V10.584C71.9375 8.424 72.5615 6.768 73.8095 5.616C75.0575 4.448 76.7375 3.864 78.8495 3.864C80.9615 3.864 82.6415 4.448 83.8895 5.616C85.1375 6.768 85.7615 8.424 85.7615 10.584V14.616C85.7615 16.776 85.1375 18.44 83.8895 19.608C82.6415 20.76 80.9615 21.336 78.8495 21.336ZM78.8495 18.504C80.0335 18.504 80.9535 18.16 81.6095 17.472C82.2655 16.784 82.5935 15.864 82.5935 14.712V10.488C82.5935 9.336 82.2655 8.416 81.6095 7.728C80.9535 7.04 80.0335 6.696 78.8495 6.696C77.6815 6.696 76.7615 7.04 76.0895 7.728C75.4335 8.416 75.1055 9.336 75.1055 10.488V14.712C75.1055 15.864 75.4335 16.784 76.0895 17.472C76.7615 18.16 77.6815 18.504 78.8495 18.504ZM93.3402 21V4.2H100.636C101.692 4.2 102.612 4.384 103.396 4.752C104.18 5.12 104.788 5.64 105.22 6.312C105.652 6.984 105.868 7.776 105.868 8.688V8.976C105.868 9.984 105.628 10.8 105.148 11.424C104.668 12.048 104.076 12.504 103.372 12.792V13.224C104.012 13.256 104.508 13.48 104.86 13.896C105.212 14.296 105.388 14.832 105.388 15.504V21H102.22V15.96C102.22 15.576 102.116 15.264 101.908 15.024C101.716 14.784 101.388 14.664 100.924 14.664H96.5082V21H93.3402ZM96.5082 11.784H100.3C101.052 11.784 101.636 11.584 102.052 11.184C102.484 10.768 102.7 10.224 102.7 9.552V9.312C102.7 8.64 102.492 8.104 102.076 7.704C101.66 7.288 101.068 7.08 100.3 7.08H96.5082V11.784ZM119.136 21.336C117.84 21.336 116.696 21.104 115.704 20.64C114.712 20.176 113.936 19.512 113.376 18.648C112.816 17.784 112.536 16.744 112.536 15.528V14.856H115.656V15.528C115.656 16.536 115.968 17.296 116.592 17.808C117.216 18.304 118.064 18.552 119.136 18.552C120.224 18.552 121.032 18.336 121.56 17.904C122.104 17.472 122.376 16.92 122.376 16.248C122.376 15.784 122.24 15.408 121.968 15.12C121.712 14.832 121.328 14.6 120.816 14.424C120.32 14.232 119.712 14.056 118.992 13.896L118.44 13.776C117.288 13.52 116.296 13.2 115.464 12.816C114.648 12.416 114.016 11.896 113.568 11.256C113.136 10.616 112.92 9.784 112.92 8.76C112.92 7.736 113.16 6.864 113.64 6.144C114.136 5.408 114.824 4.848 115.704 4.464C116.6 4.064 117.648 3.864 118.848 3.864C120.048 3.864 121.112 4.072 122.04 4.488C122.984 4.888 123.72 5.496 124.248 6.312C124.792 7.112 125.064 8.12 125.064 9.336V10.056H121.944V9.336C121.944 8.696 121.816 8.184 121.56 7.8C121.32 7.4 120.968 7.112 120.504 6.936C120.04 6.744 119.488 6.648 118.848 6.648C117.888 6.648 117.176 6.832 116.712 7.2C116.264 7.552 116.04 8.04 116.04 8.664C116.04 9.08 116.144 9.432 116.352 9.72C116.576 10.008 116.904 10.248 117.336 10.44C117.768 10.632 118.32 10.8 118.992 10.944L119.544 11.064C120.744 11.32 121.784 11.648 122.664 12.048C123.56 12.448 124.256 12.976 124.752 13.632C125.248 14.288 125.496 15.128 125.496 16.152C125.496 17.176 125.232 18.08 124.704 18.864C124.192 19.632 123.456 20.24 122.496 20.688C121.552 21.12 120.432 21.336 119.136 21.336ZM139.043 21.336C136.963 21.336 135.315 20.76 134.099 19.608C132.883 18.44 132.275 16.776 132.275 14.616V10.584C132.275 8.424 132.883 6.768 134.099 5.616C135.315 4.448 136.963 3.864 139.043 3.864C141.107 3.864 142.699 4.432 143.819 5.568C144.955 6.688 145.523 8.232 145.523 10.2V10.344H142.403V10.104C142.403 9.112 142.123 8.296 141.563 7.656C141.019 7.016 140.179 6.696 139.043 6.696C137.923 6.696 137.043 7.04 136.403 7.728C135.763 8.416 135.443 9.352 135.443 10.536V14.664C135.443 15.832 135.763 16.768 136.403 17.472C137.043 18.16 137.923 18.504 139.043 18.504C140.179 18.504 141.019 18.184 141.563 17.544C142.123 16.888 142.403 16.072 142.403 15.096V14.664H145.523V15C145.523 16.968 144.955 18.52 143.819 19.656C142.699 20.776 141.107 21.336 139.043 21.336ZM152.904 21V4.2H156.072V11.136H162.312V4.2H165.48V21H162.312V14.016H156.072V21H152.904ZM177.342 21V7.08H172.446V4.2H185.406V7.08H180.51V21H177.342Z" fill="#F5F5F5"/>
<path d="M99.248 35.168C98.64 35.168 98.164 35.052 97.82 34.82C97.484 34.588 97.24 34.324 97.088 34.028H96.92V35H95.996V26.6H96.944V30.056H97.112C97.208 29.872 97.344 29.7 97.52 29.54C97.696 29.372 97.924 29.236 98.204 29.132C98.492 29.02 98.84 28.964 99.248 28.964C99.76 28.964 100.224 29.088 100.64 29.336C101.064 29.576 101.4 29.924 101.648 30.38C101.896 30.828 102.02 31.364 102.02 31.988V32.144C102.02 32.768 101.892 33.308 101.636 33.764C101.388 34.22 101.052 34.568 100.628 34.808C100.212 35.048 99.752 35.168 99.248 35.168ZM98.996 34.328C99.604 34.328 100.096 34.136 100.472 33.752C100.856 33.36 101.048 32.816 101.048 32.12V32.012C101.048 31.316 100.856 30.776 100.472 30.392C100.096 30 99.604 29.804 98.996 29.804C98.396 29.804 97.9 30 97.508 30.392C97.124 30.776 96.932 31.316 96.932 32.012V32.12C96.932 32.816 97.124 33.36 97.508 33.752C97.9 34.136 98.396 34.328 98.996 34.328ZM104.427 37.4V36.56H107.787C108.019 36.56 108.135 36.44 108.135 36.2V34.064H107.967C107.887 34.232 107.763 34.4 107.595 34.568C107.435 34.728 107.223 34.86 106.959 34.964C106.695 35.06 106.363 35.108 105.963 35.108C105.539 35.108 105.147 35.016 104.787 34.832C104.435 34.648 104.155 34.376 103.947 34.016C103.747 33.656 103.647 33.216 103.647 32.696V29.132H104.595V32.624C104.595 33.2 104.739 33.62 105.027 33.884C105.323 34.148 105.719 34.28 106.215 34.28C106.775 34.28 107.235 34.096 107.595 33.728C107.955 33.36 108.135 32.812 108.135 32.084V29.132H109.083V36.368C109.083 36.688 108.991 36.94 108.807 37.124C108.631 37.308 108.371 37.4 108.027 37.4H104.427ZM117.148 35.168C116.148 35.168 115.352 34.88 114.76 34.304C114.168 33.72 113.872 32.872 113.872 31.76V29.84C113.872 28.728 114.168 27.884 114.76 27.308C115.352 26.724 116.148 26.432 117.148 26.432C118.14 26.432 118.9 26.708 119.428 27.26C119.964 27.812 120.232 28.568 120.232 29.528V29.588H119.236V29.492C119.236 28.86 119.064 28.344 118.72 27.944C118.384 27.536 117.86 27.332 117.148 27.332C116.436 27.332 115.88 27.552 115.48 27.992C115.08 28.424 114.88 29.032 114.88 29.816V31.784C114.88 32.568 115.08 33.18 115.48 33.62C115.88 34.052 116.436 34.268 117.148 34.268C117.86 34.268 118.384 34.068 118.72 33.668C119.064 33.26 119.236 32.74 119.236 32.108V31.916H120.232V32.072C120.232 33.032 119.964 33.788 119.428 34.34C118.9 34.892 118.14 35.168 117.148 35.168ZM124.092 35.108C123.668 35.108 123.276 35.016 122.916 34.832C122.564 34.648 122.284 34.376 122.076 34.016C121.876 33.648 121.776 33.204 121.776 32.684V29.132H122.724V32.612C122.724 33.196 122.868 33.62 123.156 33.884C123.452 34.148 123.848 34.28 124.344 34.28C124.904 34.28 125.364 34.096 125.724 33.728C126.084 33.36 126.264 32.812 126.264 32.084V29.132H127.212V35H126.288V34.004H126.12C125.992 34.284 125.772 34.54 125.46 34.772C125.148 34.996 124.692 35.108 124.092 35.108ZM129.195 35V26.6H130.143V35H129.195ZM134.297 35C133.961 35 133.701 34.908 133.517 34.724C133.341 34.54 133.253 34.288 133.253 33.968V29.96H131.489V29.132H133.253V27.044H134.201V29.132H136.121V29.96H134.201V33.824C134.201 34.064 134.317 34.184 134.549 34.184H135.857V35H134.297ZM143.45 35.168C142.858 35.168 142.334 35.044 141.878 34.796C141.43 34.548 141.078 34.2 140.822 33.752C140.574 33.296 140.45 32.76 140.45 32.144V31.988C140.45 31.38 140.574 30.848 140.822 30.392C141.078 29.936 141.43 29.584 141.878 29.336C142.334 29.088 142.858 28.964 143.45 28.964C144.042 28.964 144.562 29.088 145.01 29.336C145.466 29.584 145.818 29.936 146.066 30.392C146.322 30.848 146.45 31.38 146.45 31.988V32.144C146.45 32.76 146.322 33.296 146.066 33.752C145.818 34.2 145.466 34.548 145.01 34.796C144.562 35.044 144.042 35.168 143.45 35.168ZM143.45 34.316C144.074 34.316 144.57 34.12 144.938 33.728C145.314 33.328 145.502 32.792 145.502 32.12V32.012C145.502 31.34 145.314 30.808 144.938 30.416C144.57 30.016 144.074 29.816 143.45 29.816C142.834 29.816 142.338 30.016 141.962 30.416C141.586 30.808 141.398 31.34 141.398 32.012V32.12C141.398 32.792 141.586 33.328 141.962 33.728C142.338 34.12 142.834 34.316 143.45 34.316ZM149.062 35V29.96H147.262V29.132H149.062V27.632C149.062 27.312 149.15 27.06 149.326 26.876C149.51 26.692 149.77 26.6 150.106 26.6H151.582V27.416H150.37C150.13 27.416 150.01 27.536 150.01 27.776V29.132H151.858V29.96H150.01V35H149.062ZM159.049 35.168C158.441 35.168 157.897 35.06 157.417 34.844C156.937 34.628 156.557 34.304 156.277 33.872C156.005 33.432 155.869 32.884 155.869 32.228V31.976H156.865V32.228C156.865 32.924 157.069 33.444 157.477 33.788C157.885 34.124 158.409 34.292 159.049 34.292C159.705 34.292 160.205 34.144 160.549 33.848C160.893 33.552 161.065 33.18 161.065 32.732C161.065 32.42 160.985 32.172 160.825 31.988C160.673 31.804 160.457 31.656 160.177 31.544C159.897 31.424 159.569 31.32 159.193 31.232L158.569 31.076C158.081 30.948 157.649 30.792 157.273 30.608C156.897 30.424 156.601 30.184 156.385 29.888C156.177 29.584 156.073 29.196 156.073 28.724C156.073 28.252 156.189 27.844 156.421 27.5C156.661 27.156 156.993 26.892 157.417 26.708C157.849 26.524 158.345 26.432 158.905 26.432C159.473 26.432 159.981 26.532 160.429 26.732C160.885 26.924 161.241 27.212 161.497 27.596C161.761 27.972 161.893 28.448 161.893 29.024V29.528H160.897V29.024C160.897 28.616 160.809 28.288 160.633 28.04C160.465 27.792 160.229 27.608 159.925 27.488C159.629 27.368 159.289 27.308 158.905 27.308C158.353 27.308 157.909 27.432 157.573 27.68C157.237 27.92 157.069 28.264 157.069 28.712C157.069 29.008 157.141 29.248 157.285 29.432C157.429 29.616 157.633 29.768 157.897 29.888C158.161 30 158.477 30.1 158.845 30.188L159.469 30.344C159.957 30.448 160.393 30.592 160.777 30.776C161.169 30.952 161.481 31.196 161.713 31.508C161.945 31.812 162.061 32.212 162.061 32.708C162.061 33.204 161.937 33.636 161.689 34.004C161.441 34.372 161.089 34.66 160.633 34.868C160.185 35.068 159.657 35.168 159.049 35.168ZM166.36 35.168C165.768 35.168 165.244 35.044 164.788 34.796C164.34 34.548 163.988 34.2 163.732 33.752C163.484 33.296 163.36 32.76 163.36 32.144V31.988C163.36 31.38 163.484 30.848 163.732 30.392C163.988 29.936 164.34 29.584 164.788 29.336C165.244 29.088 165.768 28.964 166.36 28.964C166.952 28.964 167.472 29.088 167.92 29.336C168.376 29.584 168.728 29.936 168.976 30.392C169.232 30.848 169.36 31.38 169.36 31.988V32.144C169.36 32.76 169.232 33.296 168.976 33.752C168.728 34.2 168.376 34.548 167.92 34.796C167.472 35.044 166.952 35.168 166.36 35.168ZM166.36 34.316C166.984 34.316 167.48 34.12 167.848 33.728C168.224 33.328 168.412 32.792 168.412 32.12V32.012C168.412 31.34 168.224 30.808 167.848 30.416C167.48 30.016 166.984 29.816 166.36 29.816C165.744 29.816 165.248 30.016 164.872 30.416C164.496 30.808 164.308 31.34 164.308 32.012V32.12C164.308 32.792 164.496 33.328 164.872 33.728C165.248 34.12 165.744 34.316 166.36 34.316ZM173.31 35.108C172.886 35.108 172.494 35.016 172.134 34.832C171.782 34.648 171.502 34.376 171.294 34.016C171.094 33.648 170.994 33.204 170.994 32.684V29.132H171.942V32.612C171.942 33.196 172.086 33.62 172.374 33.884C172.67 34.148 173.066 34.28 173.562 34.28C174.122 34.28 174.582 34.096 174.942 33.728C175.302 33.36 175.482 32.812 175.482 32.084V29.132H176.43V35H175.506V34.004H175.338C175.21 34.284 174.99 34.54 174.678 34.772C174.366 34.996 173.91 35.108 173.31 35.108ZM178.414 37.4V29.132H179.338V30.104H179.506C179.658 29.808 179.902 29.544 180.238 29.312C180.582 29.08 181.058 28.964 181.666 28.964C182.17 28.964 182.63 29.088 183.046 29.336C183.47 29.576 183.806 29.92 184.054 30.368C184.31 30.816 184.438 31.356 184.438 31.988V32.144C184.438 32.768 184.314 33.308 184.066 33.764C183.818 34.22 183.482 34.568 183.058 34.808C182.642 35.048 182.178 35.168 181.666 35.168C181.258 35.168 180.91 35.112 180.622 35C180.342 34.896 180.114 34.76 179.938 34.592C179.762 34.424 179.626 34.252 179.53 34.076H179.362V37.4H178.414ZM181.414 34.328C182.022 34.328 182.514 34.136 182.89 33.752C183.274 33.36 183.466 32.816 183.466 32.12V32.012C183.466 31.316 183.274 30.776 182.89 30.392C182.514 30 182.022 29.804 181.414 29.804C180.814 29.804 180.318 30 179.926 30.392C179.542 30.776 179.35 31.316 179.35 32.012V32.12C179.35 32.816 179.542 33.36 179.926 33.752C180.318 34.136 180.814 34.328 181.414 34.328Z" fill="#F5F5F5"/>
</svg>
